<?xml version="1.0" encoding="UTF-8"?>
<!DOCTYPE svg PUBLIC "-//W3C//DTD SVG 1.1//EN" "http://www.w3.org/Graphics/SVG/1.1/DTD/svg11.dtd">
<svg xmlns="http://www.w3.org/2000/svg" version="1.1" width="1024px" height="1024px" style="shape-rendering:geometricPrecision; text-rendering:geometricPrecision; image-rendering:optimizeQuality; fill-rule:evenodd; clip-rule:evenodd" xmlns:xlink="http://www.w3.org/1999/xlink">
<g><path style="opacity:0.006" fill="#000000" d="M 154.5,416.5 C 143.446,433.604 138.946,452.271 141,472.5C 142.045,473.373 142.878,474.373 143.5,475.5C 141.248,475.084 139.748,473.751 139,471.5C 137.921,453.815 141.587,437.148 150,421.5C 151.049,419.382 152.549,417.716 154.5,416.5 Z"/></g>
<g><path style="opacity:0.999" fill="#97d600" d="M 157.5,430.5 C 160.5,430.5 163.5,430.5 166.5,430.5C 180.5,430.5 194.5,430.5 208.5,430.5C 208.5,433.167 208.5,435.833 208.5,438.5C 208.5,444.5 208.5,450.5 208.5,456.5C 210.833,456.5 213.167,456.5 215.5,456.5C 222.167,456.5 228.833,456.5 235.5,456.5C 238.167,456.5 240.833,456.5 243.5,456.5C 271.167,456.5 298.833,456.5 326.5,456.5C 326.5,457.833 326.5,459.167 326.5,460.5C 326.5,461.833 326.5,463.167 326.5,464.5C 326.5,471.5 326.5,478.5 326.5,485.5C 326.813,489.042 326.479,492.375 325.5,495.5C 286.5,495.5 247.5,495.5 208.5,495.5C 208.17,514.008 208.503,532.341 209.5,550.5C 209.264,555.037 211.264,558.037 215.5,559.5C 220.903,561.205 226.57,561.872 232.5,561.5C 234.167,561.5 235.833,561.5 237.5,561.5C 238.167,561.5 238.833,561.5 239.5,561.5C 242.167,561.5 244.833,561.5 247.5,561.5C 295.845,560.838 343.845,561.505 391.5,563.5C 391.5,566.167 391.5,568.833 391.5,571.5C 391.5,581.167 391.5,590.833 391.5,600.5C 326.166,600.667 260.832,600.5 195.5,600C 187.007,598.673 179.34,595.507 172.5,590.5C 171.205,589.512 169.872,588.512 168.5,587.5C 157.459,572.329 153.459,555.329 156.5,536.5C 156.5,529.167 156.5,521.833 156.5,514.5C 156.5,509.5 156.5,504.5 156.5,499.5C 156.5,492.167 156.5,484.833 156.5,477.5C 156.5,474.833 156.5,472.167 156.5,469.5C 156.5,457.833 156.5,446.167 156.5,434.5C 156.232,432.901 156.566,431.568 157.5,430.5 Z"/></g>
<g><path style="opacity:0.205" fill="#050505" d="M 815.5,438.5 C 817.833,438.5 820.167,438.5 822.5,438.5C 822.5,445.833 822.5,453.167 822.5,460.5C 821.527,462.948 821.194,465.615 821.5,468.5C 819.167,468.5 816.833,468.5 814.5,468.5C 814.173,458.319 814.506,448.319 815.5,438.5 Z"/></g>
<g><path style="opacity:0.996" fill="#353535" d="M 493.5,422.5 C 500.004,437.498 503.671,452.498 504.5,467.5C 511.879,461.977 520.212,458.477 529.5,457C 553.167,456.667 576.833,456.333 600.5,456C 636.331,435.252 671.998,414.252 707.5,393C 757.5,392.333 807.5,392.333 857.5,393C 862.298,395.734 863.798,399.567 862,404.5C 847.246,414.13 832.079,423.13 816.5,431.5C 815.526,433.743 815.192,436.076 815.5,438.5C 814.506,448.319 814.173,458.319 814.5,468.5C 814.333,496.502 814.5,524.502 815,552.5C 816.012,556.008 818.178,558.342 821.5,559.5C 821.918,560.222 822.584,560.722 823.5,561C 827.821,561.499 832.154,561.666 836.5,561.5C 838.5,561.5 840.5,561.5 842.5,561.5C 845.5,561.5 848.5,561.5 851.5,561.5C 852.167,561.5 852.833,561.5 853.5,561.5C 854.473,563.948 854.806,566.615 854.5,569.5C 854.5,579.833 854.5,590.167 854.5,600.5C 853.5,600.5 852.5,600.5 851.5,600.5C 848.5,600.5 845.5,600.5 842.5,600.5C 828.829,600.667 815.163,600.5 801.5,600C 793.58,598.534 786.246,595.701 779.5,591.5C 775.456,588.457 772.123,584.791 769.5,580.5C 768.833,579.167 768.167,577.833 767.5,576.5C 766.976,574.694 766.309,573.028 765.5,571.5C 764.161,567.646 763.328,563.646 763,559.5C 762.5,546.504 762.333,533.504 762.5,520.5C 757.167,520.5 751.833,520.5 746.5,520.5C 746.5,517.833 746.5,515.167 746.5,512.5C 749.167,512.5 751.833,512.5 754.5,512.5C 755.831,505.03 756.498,497.196 756.5,489C 756.167,481.167 755.833,473.333 755.5,465.5C 754.893,465.624 754.56,465.957 754.5,466.5C 748.447,470.53 742.114,474.197 735.5,477.5C 734.233,476.913 733.233,476.913 732.5,477.5C 738.643,491.163 740.977,505.496 739.5,520.5C 739.5,525.5 739.5,530.5 739.5,535.5C 674.167,535.5 608.833,535.5 543.5,535.5C 543.334,540.844 543.501,546.177 544,551.5C 544.576,555.566 546.743,558.233 550.5,559.5C 550.918,560.222 551.584,560.722 552.5,561C 593.833,561.667 635.167,561.667 676.5,561C 683.028,559.313 686.361,555.146 686.5,548.5C 703.833,548.5 721.167,548.5 738.5,548.5C 739.108,556.592 738.108,564.425 735.5,572C 738.482,572.498 741.482,572.665 744.5,572.5C 744.5,572.833 744.5,573.167 744.5,573.5C 741.482,573.335 738.482,573.502 735.5,574C 728.723,589.094 717.056,597.761 700.5,600C 643.833,600.667 587.167,600.667 530.5,600C 521.224,598.526 512.891,595.026 505.5,589.5C 505.167,589.5 504.833,589.5 504.5,589.5C 503.78,601.468 503.114,614.134 502.5,627.5C 502.279,628.735 501.612,629.735 500.5,630.5C 381.501,631.667 262.501,631.833 143.5,631C 142.619,630.292 141.953,629.458 141.5,628.5C 141.108,626.821 140.608,625.154 140,623.5C 139.098,594.811 139.431,566.145 141,537.5C 143.013,524.49 147.513,512.49 154.5,501.5C 154.833,500.5 155.5,499.833 156.5,499.5C 156.5,504.5 156.5,509.5 156.5,514.5C 156.167,514.5 155.833,514.5 155.5,514.5C 150.371,523.324 147.537,532.991 147,543.5C 146.17,570.336 146.336,597.003 147.5,623.5C 264.001,624.832 380.667,624.832 497.5,623.5C 497.709,622.914 498.043,622.414 498.5,622C 497.675,607.575 497.175,593.075 497,578.5C 496.243,576.685 495.41,575.019 494.5,573.5C 487.913,571.539 480.913,570.872 473.5,571.5C 473.279,568.721 473.612,566.054 474.5,563.5C 480.167,563.5 485.833,563.5 491.5,563.5C 491.667,548.83 491.5,534.163 491,519.5C 487.221,525.118 482.387,529.451 476.5,532.5C 474.621,532.607 474.288,532.107 475.5,531C 474.897,529.175 474.23,527.341 473.5,525.5C 471.587,526.373 469.753,527.373 468,528.5C 467.5,542.829 467.333,557.163 467.5,571.5C 466.506,580.986 466.173,590.652 466.5,600.5C 451.5,600.5 436.5,600.5 421.5,600.5C 419.167,600.5 416.833,600.5 414.5,600.5C 414.5,590.833 414.5,581.167 414.5,571.5C 408.833,571.5 403.167,571.5 397.5,571.5C 395.5,571.5 393.5,571.5 391.5,571.5C 391.5,568.833 391.5,566.167 391.5,563.5C 399.167,563.5 406.833,563.5 414.5,563.5C 414.5,557.5 414.5,551.5 414.5,545.5C 360.832,545.333 307.166,545.5 253.5,546C 250.943,546.685 249.109,548.185 248,550.5C 247.501,554.152 247.335,557.818 247.5,561.5C 244.833,561.5 242.167,561.5 239.5,561.5C 239.215,555.346 240.049,549.346 242,543.5C 244.469,541.348 247.302,539.848 250.5,539C 305.335,538.833 360.002,538.333 414.5,537.5C 414.5,519.167 414.5,500.833 414.5,482.5C 414.5,473.833 414.5,465.167 414.5,456.5C 431.833,456.5 449.167,456.5 466.5,456.5C 466.5,459.167 466.5,461.833 466.5,464.5C 466.5,478.167 466.5,491.833 466.5,505.5C 466.334,512.175 466.5,518.842 467,525.5C 467.333,525.833 467.667,526.167 468,526.5C 469.704,524.627 471.537,522.96 473.5,521.5C 473.281,522.675 473.614,523.675 474.5,524.5C 475.59,523.273 476.924,522.44 478.5,522C 481.63,516.607 485.464,511.774 490,507.5C 490.875,498.624 492.708,489.957 495.5,481.5C 496.29,480.391 496.79,479.058 497,477.5C 498.225,465.164 497.392,452.997 494.5,441C 494.164,439.97 493.497,439.47 492.5,439.5C 489.724,429.794 484.724,421.294 477.5,414C 471.37,410.185 465.037,406.852 458.5,404C 450.592,402.178 442.592,401.012 434.5,400.5C 433.5,400.5 432.5,400.5 431.5,400.5C 357.334,399.334 283.001,399.168 208.5,400C 200.414,400.844 192.414,402.177 184.5,404C 183.944,404.383 183.611,404.883 183.5,405.5C 177.289,407.272 171.622,410.106 166.5,414C 162.392,418.365 158.392,422.865 154.5,427.5C 152.522,433.534 150.355,439.534 148,445.5C 147.333,453.167 147.333,460.833 148,468.5C 149.011,469.337 150.178,469.67 151.5,469.5C 153.167,469.5 154.833,469.5 156.5,469.5C 156.5,472.167 156.5,474.833 156.5,477.5C 152.818,477.665 149.152,477.499 145.5,477C 144.584,476.722 143.918,476.222 143.5,475.5C 142.878,474.373 142.045,473.373 141,472.5C 138.946,452.271 143.446,433.604 154.5,416.5C 160.301,408.261 167.967,402.427 177.5,399C 184.075,396.69 190.742,394.69 197.5,393C 280.167,392.333 362.833,392.333 445.5,393C 461.375,395.356 475.208,401.856 487,412.5C 489.81,415.464 491.976,418.798 493.5,422.5 Z M 326.5,460.5 C 347.836,460.333 369.169,460.5 390.5,461C 396.455,463.573 397.955,467.739 395,473.5C 393.681,475.487 391.848,476.654 389.5,477C 370.836,477.5 352.17,477.667 333.5,477.5C 333.5,473.167 333.5,468.833 333.5,464.5C 331.167,464.5 328.833,464.5 326.5,464.5C 326.5,463.167 326.5,461.833 326.5,460.5 Z M 754.5,466.5 C 754.542,481.586 754.542,496.92 754.5,512.5C 751.833,512.5 749.167,512.5 746.5,512.5C 746.227,499.686 742.561,488.019 735.5,477.5C 742.114,474.197 748.447,470.53 754.5,466.5 Z M 684.5,506.5 C 686.048,506.821 686.715,507.821 686.5,509.5C 684.473,509.662 682.473,509.495 680.5,509C 682.066,508.392 683.4,507.558 684.5,506.5 Z M 474.5,563.5 C 474.334,553.828 474.5,544.161 475,534.5C 475.717,533.956 476.217,533.289 476.5,532.5C 482.387,529.451 487.221,525.118 491,519.5C 491.5,534.163 491.667,548.83 491.5,563.5C 485.833,563.5 480.167,563.5 474.5,563.5 Z M 391.5,563.5 C 343.845,561.505 295.845,560.838 247.5,561.5C 247.335,557.818 247.501,554.152 248,550.5C 249.109,548.185 250.943,546.685 253.5,546C 307.166,545.5 360.832,545.333 414.5,545.5C 414.5,551.5 414.5,557.5 414.5,563.5C 406.833,563.5 399.167,563.5 391.5,563.5 Z"/></g>
<g><path style="opacity:0.227" fill="#59741c" d="M 762.5,446.5 C 762.799,448.604 762.466,450.604 761.5,452.5C 759.641,454.192 757.641,455.692 755.5,457C 747.001,460.836 739.001,465.503 731.5,471C 728.706,471.972 726.706,471.139 725.5,468.5C 733.113,467.616 739.113,464.116 743.5,458C 750.51,455.13 756.844,451.296 762.5,446.5 Z"/></g>
<g><path style="opacity:0.145" fill="#4f6121" d="M 692.5,411.5 C 691.386,412.885 690.386,414.385 689.5,416C 685.861,417.985 682.527,420.318 679.5,423C 675.93,424.48 672.263,425.813 668.5,427C 667.547,428.955 666.213,430.622 664.5,432C 654.411,435.207 645.411,440.207 637.5,447C 631.825,448.869 627.158,452.035 623.5,456.5C 620.813,456.664 618.146,456.497 615.5,456C 616.167,455.333 616.833,454.667 617.5,454C 626.954,448.624 636.62,443.624 646.5,439C 650.823,436.497 654.823,433.497 658.5,430C 660.871,429.265 663.205,428.432 665.5,427.5C 668.782,424.91 672.116,422.41 675.5,420C 681.467,417.608 687.133,414.774 692.5,411.5 Z"/></g>
<g><path style="opacity:0.31" fill="#698e0d" d="M 762.5,444.5 C 762.5,445.167 762.5,445.833 762.5,446.5C 756.844,451.296 750.51,455.13 743.5,458C 739.113,464.116 733.113,467.616 725.5,468.5C 724.167,467.833 723.167,466.833 722.5,465.5C 726.547,463.147 730.88,461.314 735.5,460C 742.277,455.104 749.277,450.437 756.5,446C 758.518,445.495 760.518,444.995 762.5,444.5 Z"/></g>
<g><path style="opacity:0.09" fill="#4a5921" d="M 492.5,439.5 C 493.497,439.47 494.164,439.97 494.5,441C 497.392,452.997 498.225,465.164 497,477.5C 496.79,479.058 496.29,480.391 495.5,481.5C 495.666,471.161 495.5,460.828 495,450.5C 494.333,449.833 493.667,449.167 493,448.5C 492.502,445.518 492.335,442.518 492.5,439.5 Z"/></g>
<g><path style="opacity:0.529" fill="#466300" d="M 208.5,438.5 C 210.833,438.5 213.167,438.5 215.5,438.5C 215.5,444.5 215.5,450.5 215.5,456.5C 213.167,456.5 210.833,456.5 208.5,456.5C 208.5,450.5 208.5,444.5 208.5,438.5 Z"/></g>
<g><path style="opacity:0.137" fill="#628310" d="M 156.5,434.5 C 156.5,446.167 156.5,457.833 156.5,469.5C 154.833,469.5 153.167,469.5 151.5,469.5C 148.164,463.759 147.831,457.759 150.5,451.5C 149.966,448.893 150.633,446.393 152.5,444C 151.934,441.639 152.934,439.806 155.5,438.5C 153.853,436.512 154.186,435.179 156.5,434.5 Z"/></g>
<g><path style="opacity:0.102" fill="#51661e" d="M 183.5,405.5 C 177.587,408.803 171.92,412.637 166.5,417C 163.771,421.698 160.771,426.198 157.5,430.5C 156.566,431.568 156.232,432.901 156.5,434.5C 154.186,435.179 153.853,436.512 155.5,438.5C 152.934,439.806 151.934,441.639 152.5,444C 150.633,446.393 149.966,448.893 150.5,451.5C 147.831,457.759 148.164,463.759 151.5,469.5C 150.178,469.67 149.011,469.337 148,468.5C 147.333,460.833 147.333,453.167 148,445.5C 150.355,439.534 152.522,433.534 154.5,427.5C 158.392,422.865 162.392,418.365 166.5,414C 171.622,410.106 177.289,407.272 183.5,405.5 Z"/></g>
<g><path style="opacity:0.273" fill="#6e9807" d="M 427.5,400.5 C 428.833,400.5 430.167,400.5 431.5,400.5C 432.5,400.5 433.5,400.5 434.5,400.5C 434.611,401.117 434.944,401.617 435.5,402C 437.81,402.497 440.143,402.663 442.5,402.5C 447.597,406.164 453.264,408.997 459.5,411C 463.167,413.5 466.833,416 470.5,418.5C 476.911,424.097 481.078,431.097 483,439.5C 483.667,440.833 484.333,440.833 485,439.5C 485.912,441.659 486.745,443.825 487.5,446C 487.721,448.653 487.387,451.486 486.5,454.5C 488.51,457.863 488.51,461.03 486.5,464C 487.833,467.333 487.833,470.667 486.5,474C 487.357,474.689 488.023,475.522 488.5,476.5C 487.152,479.165 486.819,481.831 487.5,484.5C 487.023,485.478 486.357,486.311 485.5,487C 486.428,487.388 487.095,488.055 487.5,489C 485.444,493.708 483.611,498.875 482,504.5C 479.991,506.825 478.158,509.325 476.5,512C 477.151,513.308 476.485,514.141 474.5,514.5C 474.672,513.508 474.338,512.842 473.5,512.5C 473.5,496.5 473.5,480.5 473.5,464.5C 474.328,470.653 474.828,476.987 475,483.5C 479.011,459.378 474.344,437.711 461,418.5C 451.286,411.893 440.786,406.727 429.5,403C 428.619,402.292 427.953,401.458 427.5,400.5 Z"/></g>
<g><path style="opacity:0.231" fill="#608013" d="M 711.5,400.5 C 714.833,400.5 718.167,400.5 721.5,400.5C 718.052,403.772 714.385,406.938 710.5,410C 696.661,417.938 682.495,425.104 668,431.5C 664.427,435.411 660.594,438.911 656.5,442C 646.824,445.834 637.824,450.667 629.5,456.5C 627.5,456.5 625.5,456.5 623.5,456.5C 627.158,452.035 631.825,448.869 637.5,447C 645.411,440.207 654.411,435.207 664.5,432C 666.213,430.622 667.547,428.955 668.5,427C 672.263,425.813 675.93,424.48 679.5,423C 682.527,420.318 685.861,417.985 689.5,416C 690.386,414.385 691.386,412.885 692.5,411.5C 692.833,411.5 693.167,411.5 693.5,411.5C 695.179,411.108 696.846,410.608 698.5,410C 702.476,406.168 706.81,403.001 711.5,400.5 Z"/></g>
<g><path style="opacity:0.005" fill="#000000" d="M 493.5,422.5 C 495.474,424.428 496.974,426.761 498,429.5C 502.941,441.702 505.107,454.368 504.5,467.5C 503.671,452.498 500.004,437.498 493.5,422.5 Z"/></g>
<g><path style="opacity:0.341" fill="#6f9a07" d="M 721.5,400.5 C 723.5,400.5 725.5,400.5 727.5,400.5C 727.439,402.592 726.439,404.092 724.5,405C 695.033,421.72 666.033,438.886 637.5,456.5C 634.833,456.5 632.167,456.5 629.5,456.5C 637.824,450.667 646.824,445.834 656.5,442C 660.594,438.911 664.427,435.411 668,431.5C 682.495,425.104 696.661,417.938 710.5,410C 714.385,406.938 718.052,403.772 721.5,400.5 Z"/></g>
<g><path style="opacity:0.198" fill="#5d7b17" d="M 843.5,400.5 C 846.187,400.336 848.854,400.503 851.5,401C 850.944,401.383 850.611,401.883 850.5,402.5C 849.609,403.11 848.609,403.443 847.5,403.5C 838.921,407.123 830.588,411.29 822.5,416C 819.671,418.827 816.337,420.827 812.5,422C 811.29,423.039 810.29,424.206 809.5,425.5C 803.671,430.004 797.004,431.671 789.5,430.5C 798.837,423.982 808.837,418.482 819.5,414C 826.984,408.295 834.984,403.795 843.5,400.5 Z"/></g>
<g><path style="opacity:0.149" fill="#4f6423" d="M 847.5,403.5 C 835.097,411.225 822.43,418.558 809.5,425.5C 810.29,424.206 811.29,423.039 812.5,422C 816.337,420.827 819.671,418.827 822.5,416C 830.588,411.29 838.921,407.123 847.5,403.5 Z"/></g>
<g><path style="opacity:0.275" fill="#668a0f" d="M 216.5,400.5 C 207.57,403.057 198.57,405.557 189.5,408C 185.06,413.042 180.06,417.375 174.5,421C 174.833,421.333 175.167,421.667 175.5,422C 171.677,423.3 168.677,426.133 166.5,430.5C 163.5,430.5 160.5,430.5 157.5,430.5C 160.771,426.198 163.771,421.698 166.5,417C 171.92,412.637 177.587,408.803 183.5,405.5C 194.386,403.19 205.386,401.524 216.5,400.5 Z"/></g>
<g><path style="opacity:0.145" fill="#4a5726" d="M 711.5,400.5 C 706.81,403.001 702.476,406.168 698.5,410C 696.846,410.608 695.179,411.108 693.5,411.5C 696.791,408.227 700.458,405.393 704.5,403C 706.854,402.153 709.188,401.32 711.5,400.5 Z"/></g>
<g><path style="opacity:0.169" fill="#506321" d="M 434.5,400.5 C 442.592,401.012 450.592,402.178 458.5,404C 465.037,406.852 471.37,410.185 477.5,414C 484.724,421.294 489.724,429.794 492.5,439.5C 489.286,433.747 485.786,428.081 482,422.5C 479.523,419.184 476.356,416.851 472.5,415.5C 464.088,408.119 454.088,403.785 442.5,402.5C 440.143,402.663 437.81,402.497 435.5,402C 434.944,401.617 434.611,401.117 434.5,400.5 Z"/></g>
<g><path style="opacity:0.388" fill="#78a900" d="M 727.5,400.5 C 766.167,400.5 804.833,400.5 843.5,400.5C 834.984,403.795 826.984,408.295 819.5,414C 808.837,418.482 798.837,423.982 789.5,430.5C 780.5,430.5 771.5,430.5 762.5,430.5C 762.5,435.167 762.5,439.833 762.5,444.5C 760.518,444.995 758.518,445.495 756.5,446C 749.277,450.437 742.277,455.104 735.5,460C 730.88,461.314 726.547,463.147 722.5,465.5C 715.365,461.397 707.698,458.564 699.5,457C 678.836,456.5 658.169,456.333 637.5,456.5C 666.033,438.886 695.033,421.72 724.5,405C 726.439,404.092 727.439,402.592 727.5,400.5 Z"/></g>
<g><path style="opacity:0.388" fill="#78a900" d="M 216.5,400.5 C 286.833,400.5 357.167,400.5 427.5,400.5C 427.953,401.458 428.619,402.292 429.5,403C 440.786,406.727 451.286,411.893 461,418.5C 474.344,437.711 479.011,459.378 475,483.5C 474.828,476.987 474.328,470.653 473.5,464.5C 471.167,464.5 468.833,464.5 466.5,464.5C 466.5,461.833 466.5,459.167 466.5,456.5C 449.167,456.5 431.833,456.5 414.5,456.5C 408.399,453.082 401.732,451.748 394.5,452.5C 343.499,452.333 292.499,452.5 241.5,453C 238.98,453.421 236.98,454.588 235.5,456.5C 228.833,456.5 222.167,456.5 215.5,456.5C 215.5,450.5 215.5,444.5 215.5,438.5C 213.167,438.5 210.833,438.5 208.5,438.5C 208.5,435.833 208.5,433.167 208.5,430.5C 194.5,430.5 180.5,430.5 166.5,430.5C 168.677,426.133 171.677,423.3 175.5,422C 175.167,421.667 174.833,421.333 174.5,421C 180.06,417.375 185.06,413.042 189.5,408C 198.57,405.557 207.57,403.057 216.5,400.5 Z"/></g>
<g><path style="opacity:0.208" fill="#4f6224" d="M 394.5,452.5 C 394.5,452.833 394.5,453.167 394.5,453.5C 345.832,453.333 297.166,453.5 248.5,454C 246.509,454.374 244.842,455.207 243.5,456.5C 240.833,456.5 238.167,456.5 235.5,456.5C 236.98,454.588 238.98,453.421 241.5,453C 292.499,452.5 343.499,452.333 394.5,452.5 Z"/></g>
<g><path style="opacity:0.227" fill="#495924" d="M 711.5,400.5 C 759.002,399.169 806.668,399.169 854.5,400.5C 853.423,401.705 852.09,402.372 850.5,402.5C 850.611,401.883 850.944,401.383 851.5,401C 848.854,400.503 846.187,400.336 843.5,400.5C 804.833,400.5 766.167,400.5 727.5,400.5C 725.5,400.5 723.5,400.5 721.5,400.5C 718.167,400.5 714.833,400.5 711.5,400.5 Z"/></g>
<g><path style="opacity:0.227" fill="#4b5b23" d="M 431.5,400.5 C 430.167,400.5 428.833,400.5 427.5,400.5C 357.167,400.5 286.833,400.5 216.5,400.5C 205.386,401.524 194.386,403.19 183.5,405.5C 183.611,404.883 183.944,404.383 184.5,404C 192.414,402.177 200.414,400.844 208.5,400C 283.001,399.168 357.334,399.334 431.5,400.5 Z"/></g>
<g><path style="opacity:0.181" fill="#668a0d" d="M 442.5,402.5 C 454.088,403.785 464.088,408.119 472.5,415.5C 474.289,418.457 476.622,420.957 479.5,423C 479.167,423.333 478.833,423.667 478.5,424C 482.435,427.8 485.268,432.3 487,437.5C 488.217,439.52 488.383,441.52 487.5,443.5C 488.5,445.5 489.5,447.5 490.5,449.5C 489.529,450.962 489.862,452.295 491.5,453.5C 491.167,454.167 490.833,454.833 490.5,455.5C 491.785,459.969 492.785,464.469 493.5,469C 493.118,474.045 493.118,479.045 493.5,484C 492.12,485.324 491.786,486.657 492.5,488C 489.878,489.913 488.878,492.246 489.5,495C 487.431,495.324 487.098,496.158 488.5,497.5C 485.239,505.028 480.739,511.695 475,517.5C 474.517,516.552 474.351,515.552 474.5,514.5C 476.485,514.141 477.151,513.308 476.5,512C 478.158,509.325 479.991,506.825 482,504.5C 483.611,498.875 485.444,493.708 487.5,489C 487.095,488.055 486.428,487.388 485.5,487C 486.357,486.311 487.023,485.478 487.5,484.5C 486.819,481.831 487.152,479.165 488.5,476.5C 488.023,475.522 487.357,474.689 486.5,474C 487.833,470.667 487.833,467.333 486.5,464C 488.51,461.03 488.51,457.863 486.5,454.5C 487.387,451.486 487.721,448.653 487.5,446C 486.745,443.825 485.912,441.659 485,439.5C 484.333,440.833 483.667,440.833 483,439.5C 481.078,431.097 476.911,424.097 470.5,418.5C 466.833,416 463.167,413.5 459.5,411C 453.264,408.997 447.597,406.164 442.5,402.5 Z"/></g>
<g><path style="opacity:0.004" fill="#000000" d="M 858.5,462.5 C 861.188,463.024 862.688,464.691 863,467.5C 863.667,520.167 863.667,572.833 863,625.5C 862.623,626.942 861.79,627.942 860.5,628.5C 860.892,626.821 861.392,625.154 862,623.5C 862.832,571.665 862.665,519.998 861.5,468.5C 861.385,466.053 860.385,464.053 858.5,462.5 Z"/></g>
<g><path style="opacity:0.209" fill="#060605" d="M 326.5,464.5 C 328.833,464.5 331.167,464.5 333.5,464.5C 333.5,468.833 333.5,473.167 333.5,477.5C 333.5,479.833 333.5,482.167 333.5,484.5C 332.833,484.5 332.5,484.833 332.5,485.5C 330.5,485.5 328.5,485.5 326.5,485.5C 326.5,478.5 326.5,471.5 326.5,464.5 Z"/></g>
<g><path style="opacity:0.514" fill="#3f5803" d="M 466.5,464.5 C 468.833,464.5 471.167,464.5 473.5,464.5C 473.5,480.5 473.5,496.5 473.5,512.5C 471.53,514.647 469.697,516.98 468,519.5C 467.826,514.649 467.326,509.982 466.5,505.5C 466.5,491.833 466.5,478.167 466.5,464.5 Z"/></g>
<g><path style="opacity:0.006" fill="#000000" d="M 754.5,466.5 C 754.56,465.957 754.893,465.624 755.5,465.5C 755.833,473.333 756.167,481.167 756.5,489C 756.498,497.196 755.831,505.03 754.5,512.5C 754.542,496.92 754.542,481.586 754.5,466.5 Z"/></g>
<g><path style="opacity:0.039" fill="#343432" d="M 822.5,460.5 C 833.505,460.333 844.505,460.5 855.5,461C 856.737,461.232 857.737,461.732 858.5,462.5C 860.385,464.053 861.385,466.053 861.5,468.5C 861.5,502.167 861.5,535.833 861.5,569.5C 859.5,569.5 857.5,569.5 855.5,569.5C 855.5,535.833 855.5,502.167 855.5,468.5C 854.5,468.5 853.5,468.5 852.5,468.5C 850.5,468.5 848.5,468.5 846.5,468.5C 842.5,468.5 838.5,468.5 834.5,468.5C 830.167,468.5 825.833,468.5 821.5,468.5C 821.194,465.615 821.527,462.948 822.5,460.5 Z"/></g>
<g><path style="opacity:0.361" fill="#76a502" d="M 821.5,468.5 C 825.833,468.5 830.167,468.5 834.5,468.5C 835.568,469.434 836.901,469.768 838.5,469.5C 836.533,500.011 835.866,530.678 836.5,561.5C 832.154,561.666 827.821,561.499 823.5,561C 822.584,560.722 821.918,560.222 821.5,559.5C 821.5,529.167 821.5,498.833 821.5,468.5 Z"/></g>
<g><path style="opacity:0.227" fill="#6a8e0b" d="M 834.5,468.5 C 838.5,468.5 842.5,468.5 846.5,468.5C 848.498,469.148 850.498,469.981 852.5,471C 851.505,501.093 851.171,531.26 851.5,561.5C 848.5,561.5 845.5,561.5 842.5,561.5C 842.171,531.26 842.505,501.093 843.5,471C 842.095,469.731 840.429,469.231 838.5,469.5C 836.901,469.768 835.568,469.434 834.5,468.5 Z"/></g>
<g><path style="opacity:0.529" fill="#435e01" d="M 814.5,468.5 C 816.833,468.5 819.167,468.5 821.5,468.5C 821.5,498.833 821.5,529.167 821.5,559.5C 818.178,558.342 816.012,556.008 815,552.5C 814.5,524.502 814.333,496.502 814.5,468.5 Z"/></g>
<g><path style="opacity:0.286" fill="#6f9806" d="M 838.5,469.5 C 840.429,469.231 842.095,469.731 843.5,471C 842.505,501.093 842.171,531.26 842.5,561.5C 840.5,561.5 838.5,561.5 836.5,561.5C 835.866,530.678 836.533,500.011 838.5,469.5 Z"/></g>
<g><path style="opacity:0.094" fill="#577514" d="M 846.5,468.5 C 848.5,468.5 850.5,468.5 852.5,468.5C 852.953,469.458 853.619,470.292 854.5,471C 853.505,501.093 853.171,531.26 853.5,561.5C 852.833,561.5 852.167,561.5 851.5,561.5C 851.171,531.26 851.505,501.093 852.5,471C 850.498,469.981 848.498,469.148 846.5,468.5 Z"/></g>
<g><path style="opacity:0.078" fill="#55631c" d="M 852.5,468.5 C 853.5,468.5 854.5,468.5 855.5,468.5C 855.5,502.167 855.5,535.833 855.5,569.5C 855.167,569.5 854.833,569.5 854.5,569.5C 854.806,566.615 854.473,563.948 853.5,561.5C 853.171,531.26 853.505,501.093 854.5,471C 853.619,470.292 852.953,469.458 852.5,468.5 Z"/></g>
<g><path style="opacity:0.137" fill="#546b1d" d="M 396.5,453.5 C 401.59,453.413 405.59,455.413 408.5,459.5C 406.575,462.697 406.575,465.697 408.5,468.5C 407.973,471.975 407.973,475.308 408.5,478.5C 405.842,480.831 403.176,483.164 400.5,485.5C 377.833,485.5 355.167,485.5 332.5,485.5C 332.5,484.833 332.833,484.5 333.5,484.5C 353.5,484.5 373.5,484.5 393.5,484.5C 398.88,485.144 402.88,483.144 405.5,478.5C 404.68,471.492 403.68,464.492 402.5,457.5C 400.744,455.634 398.744,454.301 396.5,453.5 Z"/></g>
<g><path style="opacity:0.139" fill="#333335" d="M 394.5,453.5 C 398.092,455.091 400.758,457.758 402.5,461.5C 401.962,463.764 402.296,466.097 403.5,468.5C 402.167,470.5 402.167,472.5 403.5,474.5C 401.783,479.551 398.449,482.884 393.5,484.5C 373.5,484.5 353.5,484.5 333.5,484.5C 333.5,482.167 333.5,479.833 333.5,477.5C 352.17,477.667 370.836,477.5 389.5,477C 391.848,476.654 393.681,475.487 395,473.5C 397.955,467.739 396.455,463.573 390.5,461C 369.169,460.5 347.836,460.333 326.5,460.5C 326.5,459.167 326.5,457.833 326.5,456.5C 298.833,456.5 271.167,456.5 243.5,456.5C 244.842,455.207 246.509,454.374 248.5,454C 297.166,453.5 345.832,453.333 394.5,453.5 Z"/></g>
<g><path style="opacity:0.259" fill="#64870f" d="M 394.5,453.5 C 394.5,453.167 394.5,452.833 394.5,452.5C 401.732,451.748 408.399,453.082 414.5,456.5C 414.5,465.167 414.5,473.833 414.5,482.5C 410.235,484.957 405.568,485.957 400.5,485.5C 403.176,483.164 405.842,480.831 408.5,478.5C 407.973,475.308 407.973,471.975 408.5,468.5C 406.575,465.697 406.575,462.697 408.5,459.5C 405.59,455.413 401.59,453.413 396.5,453.5C 395.833,453.5 395.167,453.5 394.5,453.5 Z"/></g>
<g><path style="opacity:0.199" fill="#040404" d="M 735.5,477.5 C 742.561,488.019 746.227,499.686 746.5,512.5C 746.5,515.167 746.5,517.833 746.5,520.5C 744.167,520.5 741.833,520.5 739.5,520.5C 740.977,505.496 738.643,491.163 732.5,477.5C 733.233,476.913 734.233,476.913 735.5,477.5 Z"/></g>
<g><path style="opacity:0.18" fill="#475326" d="M 394.5,453.5 C 395.167,453.5 395.833,453.5 396.5,453.5C 398.744,454.301 400.744,455.634 402.5,457.5C 403.68,464.492 404.68,471.492 405.5,478.5C 402.88,483.144 398.88,485.144 393.5,484.5C 398.449,482.884 401.783,479.551 403.5,474.5C 402.167,472.5 402.167,470.5 403.5,468.5C 402.296,466.097 401.962,463.764 402.5,461.5C 400.758,457.758 398.092,455.091 394.5,453.5 Z"/></g>
<g><path style="opacity:0.388" fill="#78a900" d="M 414.5,482.5 C 414.5,500.833 414.5,519.167 414.5,537.5C 359.5,537.5 304.5,537.5 249.5,537.5C 245.167,537.5 240.833,537.5 236.5,537.5C 228.522,536.788 222.022,539.454 217,545.5C 216.5,531.837 216.333,518.171 216.5,504.5C 255.337,504.832 294.004,504.499 332.5,503.5C 332.5,497.5 332.5,491.5 332.5,485.5C 355.167,485.5 377.833,485.5 400.5,485.5C 405.568,485.957 410.235,484.957 414.5,482.5 Z"/></g>
<g><path style="opacity:0.529" fill="#446000" d="M 326.5,485.5 C 328.5,485.5 330.5,485.5 332.5,485.5C 332.5,491.5 332.5,497.5 332.5,503.5C 293.5,503.5 254.5,503.5 215.5,503.5C 215.5,522.167 215.5,540.833 215.5,559.5C 211.264,558.037 209.264,555.037 209.5,550.5C 209.5,532.5 209.5,514.5 209.5,496.5C 248.337,496.832 287.004,496.499 325.5,495.5C 326.479,492.375 326.813,489.042 326.5,485.5 Z"/></g>
<g><path style="opacity:0.125" fill="#5c7816" d="M 472.5,415.5 C 476.356,416.851 479.523,419.184 482,422.5C 485.786,428.081 489.286,433.747 492.5,439.5C 492.335,442.518 492.502,445.518 493,448.5C 493.667,449.167 494.333,449.833 495,450.5C 495.5,460.828 495.666,471.161 495.5,481.5C 492.708,489.957 490.875,498.624 490,507.5C 485.464,511.774 481.63,516.607 478.5,522C 476.924,522.44 475.59,523.273 474.5,524.5C 473.614,523.675 473.281,522.675 473.5,521.5C 473.5,518.5 473.5,515.5 473.5,512.5C 474.338,512.842 474.672,513.508 474.5,514.5C 474.351,515.552 474.517,516.552 475,517.5C 480.739,511.695 485.239,505.028 488.5,497.5C 487.098,496.158 487.431,495.324 489.5,495C 488.878,492.246 489.878,489.913 492.5,488C 491.786,486.657 492.12,485.324 493.5,484C 493.118,479.045 493.118,474.045 493.5,469C 492.785,464.469 491.785,459.969 490.5,455.5C 490.833,454.833 491.167,454.167 491.5,453.5C 489.862,452.295 489.529,450.962 490.5,449.5C 489.5,447.5 488.5,445.5 487.5,443.5C 488.383,441.52 488.217,439.52 487,437.5C 485.268,432.3 482.435,427.8 478.5,424C 478.833,423.667 479.167,423.333 479.5,423C 476.622,420.957 474.289,418.457 472.5,415.5 Z"/></g>
<g><path style="opacity:0.561" fill="#527400" d="M 325.5,495.5 C 287.004,496.499 248.337,496.832 209.5,496.5C 209.5,514.5 209.5,532.5 209.5,550.5C 208.503,532.341 208.17,514.008 208.5,495.5C 247.5,495.5 286.5,495.5 325.5,495.5 Z"/></g>
<g><path style="opacity:0.529" fill="#435d02" d="M 671.5,495.5 C 671.611,496.117 671.944,496.617 672.5,497C 669.397,498.281 666.731,500.114 664.5,502.5C 667.107,503.318 669.774,503.818 672.5,504C 669.248,505.566 666.248,507.399 663.5,509.5C 661.167,509.5 658.833,509.5 656.5,509.5C 657.46,507.539 658.793,505.873 660.5,504.5C 626.838,503.333 593.172,503.167 559.5,504C 556.74,505.179 554.74,507.012 553.5,509.5C 550.167,509.5 546.833,509.5 543.5,509.5C 544.159,502.009 548.159,497.509 555.5,496C 594.165,495.5 632.832,495.333 671.5,495.5 Z"/></g>
<g><path style="opacity:0.005" fill="#000000" d="M 154.5,501.5 C 147.513,512.49 143.013,524.49 141,537.5C 139.431,566.145 139.098,594.811 140,623.5C 140.608,625.154 141.108,626.821 141.5,628.5C 140.542,628.047 139.708,627.381 139,626.5C 138.333,597.167 138.333,567.833 139,538.5C 140.876,527.205 144.543,516.538 150,506.5C 151.049,504.382 152.549,502.716 154.5,501.5 Z"/></g>
<g><path style="opacity:0.396" fill="#719e03" d="M 332.5,503.5 C 294.004,504.499 255.337,504.832 216.5,504.5C 216.333,518.171 216.5,531.837 217,545.5C 222.022,539.454 228.522,536.788 236.5,537.5C 234.042,539.456 231.708,541.622 229.5,544C 230.996,545.331 232.329,546.831 233.5,548.5C 232.74,552.498 232.407,556.831 232.5,561.5C 226.57,561.872 220.903,561.205 215.5,559.5C 215.5,540.833 215.5,522.167 215.5,503.5C 254.5,503.5 293.5,503.5 332.5,503.5 Z"/></g>
<g><path style="opacity:0.388" fill="#77a700" d="M 656.5,509.5 C 622.167,509.5 587.833,509.5 553.5,509.5C 554.74,507.012 556.74,505.179 559.5,504C 593.172,503.167 626.838,503.333 660.5,504.5C 658.793,505.873 657.46,507.539 656.5,509.5 Z"/></g>
<g><path style="opacity:0.09" fill="#313b19" d="M 671.5,495.5 C 682.405,496.096 683.071,498.596 673.5,503C 674.458,504.147 674.125,505.147 672.5,506C 669.47,507.284 666.47,508.451 663.5,509.5C 666.248,507.399 669.248,505.566 672.5,504C 669.774,503.818 667.107,503.318 664.5,502.5C 666.731,500.114 669.397,498.281 672.5,497C 671.944,496.617 671.611,496.117 671.5,495.5 Z"/></g>
<g><path style="opacity:0.42" fill="#2e3e0b" d="M 466.5,505.5 C 467.326,509.982 467.826,514.649 468,519.5C 469.697,516.98 471.53,514.647 473.5,512.5C 473.5,515.5 473.5,518.5 473.5,521.5C 471.537,522.96 469.704,524.627 468,526.5C 467.667,526.167 467.333,525.833 467,525.5C 466.5,518.842 466.334,512.175 466.5,505.5 Z"/></g>
<g><path style="opacity:0.529" fill="#445f00" d="M 739.5,520.5 C 741.833,520.5 744.167,520.5 746.5,520.5C 746.5,528.167 746.5,535.833 746.5,543.5C 681.167,543.5 615.833,543.5 550.5,543.5C 550.5,548.833 550.5,554.167 550.5,559.5C 546.743,558.233 544.576,555.566 544,551.5C 543.501,546.177 543.334,540.844 543.5,535.5C 608.833,535.5 674.167,535.5 739.5,535.5C 739.5,530.5 739.5,525.5 739.5,520.5 Z"/></g>
<g><path style="opacity:0.388" fill="#78a900" d="M 746.5,520.5 C 751.833,520.5 757.167,520.5 762.5,520.5C 762.333,533.504 762.5,546.504 763,559.5C 763.328,563.646 764.161,567.646 765.5,571.5C 758.687,572.491 751.687,572.825 744.5,572.5C 745.4,567.228 745.733,561.895 745.5,556.5C 743.5,556.5 741.5,556.5 739.5,556.5C 739.806,553.615 739.473,550.948 738.5,548.5C 721.167,548.5 703.833,548.5 686.5,548.5C 686.361,555.146 683.028,559.313 676.5,561C 635.167,561.667 593.833,561.667 552.5,561C 551.584,560.722 550.918,560.222 550.5,559.5C 550.5,554.167 550.5,548.833 550.5,543.5C 615.833,543.5 681.167,543.5 746.5,543.5C 746.5,535.833 746.5,528.167 746.5,520.5 Z"/></g>
<g><path style="opacity:0.207" fill="#040404" d="M 476.5,532.5 C 476.217,533.289 475.717,533.956 475,534.5C 474.5,544.161 474.334,553.828 474.5,563.5C 473.612,566.054 473.279,568.721 473.5,571.5C 471.5,571.5 469.5,571.5 467.5,571.5C 467.333,557.163 467.5,542.829 468,528.5C 469.753,527.373 471.587,526.373 473.5,525.5C 474.23,527.341 474.897,529.175 475.5,531C 474.288,532.107 474.621,532.607 476.5,532.5 Z"/></g>
<g><path style="opacity:0.196" fill="#485527" d="M 249.5,537.5 C 304.5,537.5 359.5,537.5 414.5,537.5C 360.002,538.333 305.335,538.833 250.5,539C 247.302,539.848 244.469,541.348 242,543.5C 240.049,549.346 239.215,555.346 239.5,561.5C 238.833,561.5 238.167,561.5 237.5,561.5C 237.319,558.603 237.652,555.77 238.5,553C 238.13,549.713 237.13,546.713 235.5,544C 236.5,543 237.5,542 238.5,541C 242.372,540.096 246.039,538.93 249.5,537.5 Z"/></g>
<g><path style="opacity:0.223" fill="#618211" d="M 236.5,537.5 C 240.833,537.5 245.167,537.5 249.5,537.5C 246.039,538.93 242.372,540.096 238.5,541C 237.5,542 236.5,543 235.5,544C 237.13,546.713 238.13,549.713 238.5,553C 237.652,555.77 237.319,558.603 237.5,561.5C 235.833,561.5 234.167,561.5 232.5,561.5C 232.407,556.831 232.74,552.498 233.5,548.5C 232.329,546.831 230.996,545.331 229.5,544C 231.708,541.622 234.042,539.456 236.5,537.5 Z"/></g>
<g><path style="opacity:0.149" fill="#62810f" d="M 155.5,514.5 C 155.833,514.5 156.167,514.5 156.5,514.5C 156.5,521.833 156.5,529.167 156.5,536.5C 153.79,538.253 153.123,540.586 154.5,543.5C 153.842,570.215 153.175,596.882 152.5,623.5C 151.5,623.5 150.5,623.5 149.5,623.5C 149.822,597.509 149.488,571.343 148.5,545C 149.114,542.146 149.781,539.313 150.5,536.5C 150.039,532.963 150.705,529.463 152.5,526C 152.167,525.667 151.833,525.333 151.5,525C 153.97,521.965 155.304,518.465 155.5,514.5 Z"/></g>
<g><path style="opacity:0.075" fill="#4e641b" d="M 155.5,514.5 C 155.304,518.465 153.97,521.965 151.5,525C 151.833,525.333 152.167,525.667 152.5,526C 150.705,529.463 150.039,532.963 150.5,536.5C 149.781,539.313 149.114,542.146 148.5,545C 149.488,571.343 149.822,597.509 149.5,623.5C 148.833,623.5 148.167,623.5 147.5,623.5C 146.336,597.003 146.17,570.336 147,543.5C 147.537,532.991 150.371,523.324 155.5,514.5 Z"/></g>
<g><path style="opacity:0.529" fill="#456003" d="M 738.5,548.5 C 739.473,550.948 739.806,553.615 739.5,556.5C 741.5,556.5 743.5,556.5 745.5,556.5C 745.733,561.895 745.4,567.228 744.5,572.5C 741.482,572.665 738.482,572.498 735.5,572C 738.108,564.425 739.108,556.592 738.5,548.5 Z"/></g>
<g><path style="opacity:0.256" fill="#070805" d="M 854.5,569.5 C 854.833,569.5 855.167,569.5 855.5,569.5C 857.5,569.5 859.5,569.5 861.5,569.5C 861.5,582.5 861.5,595.5 861.5,608.5C 859.5,608.5 857.5,608.5 855.5,608.5C 854.833,608.5 854.167,608.5 853.5,608.5C 852.833,608.5 852.167,608.5 851.5,608.5C 851.5,605.833 851.5,603.167 851.5,600.5C 852.5,600.5 853.5,600.5 854.5,600.5C 854.5,590.167 854.5,579.833 854.5,569.5 Z"/></g>
<g><path style="opacity:0.529" fill="#446000" d="M 391.5,571.5 C 393.5,571.5 395.5,571.5 397.5,571.5C 397.5,583.833 397.5,596.167 397.5,608.5C 332.499,608.667 267.499,608.5 202.5,608C 193.095,606.647 184.761,602.981 177.5,597C 175.21,595.223 173.543,593.056 172.5,590.5C 179.34,595.507 187.007,598.673 195.5,600C 260.832,600.5 326.166,600.667 391.5,600.5C 391.5,590.833 391.5,581.167 391.5,571.5 Z"/></g>
<g><path style="opacity:0.389" fill="#78a900" d="M 397.5,571.5 C 403.167,571.5 408.833,571.5 414.5,571.5C 414.5,581.167 414.5,590.833 414.5,600.5C 416.833,600.5 419.167,600.5 421.5,600.5C 421.5,603.167 421.5,605.833 421.5,608.5C 438.833,608.5 456.167,608.5 473.5,608.5C 474.495,596.678 474.828,584.678 474.5,572.5C 476.5,572.5 478.5,572.5 480.5,572.5C 479.432,573.434 478.099,573.768 476.5,573.5C 475.857,589.907 476.524,606.073 478.5,622C 477.584,622.278 476.918,622.778 476.5,623.5C 373.5,623.5 270.5,623.5 167.5,623.5C 167.389,622.883 167.056,622.383 166.5,622C 168.465,610.754 169.132,599.254 168.5,587.5C 169.872,588.512 171.205,589.512 172.5,590.5C 173.543,593.056 175.21,595.223 177.5,597C 184.761,602.981 193.095,606.647 202.5,608C 267.499,608.5 332.499,608.667 397.5,608.5C 397.5,596.167 397.5,583.833 397.5,571.5 Z"/></g>
<g><path style="opacity:0.529" fill="#435f01" d="M 467.5,571.5 C 469.5,571.5 471.5,571.5 473.5,571.5C 473.5,583.833 473.5,596.167 473.5,608.5C 456.167,608.5 438.833,608.5 421.5,608.5C 421.5,605.833 421.5,603.167 421.5,600.5C 436.5,600.5 451.5,600.5 466.5,600.5C 466.173,590.652 466.506,580.986 467.5,571.5 Z"/></g>
<g><path style="opacity:0.27" fill="#6e9807" d="M 480.5,572.5 C 482.527,572.338 484.527,572.505 486.5,573C 485.186,589.803 485.186,606.637 486.5,623.5C 483.167,623.5 479.833,623.5 476.5,623.5C 476.918,622.778 477.584,622.278 478.5,622C 476.524,606.073 475.857,589.907 476.5,573.5C 478.099,573.768 479.432,573.434 480.5,572.5 Z"/></g>
<g><path style="opacity:0.145" fill="#668a0d" d="M 473.5,571.5 C 480.913,570.872 487.913,571.539 494.5,573.5C 494.175,589.744 494.509,605.911 495.5,622C 492.722,623.392 489.722,623.892 486.5,623.5C 485.186,606.637 485.186,589.803 486.5,573C 484.527,572.505 482.527,572.338 480.5,572.5C 478.5,572.5 476.5,572.5 474.5,572.5C 474.828,584.678 474.495,596.678 473.5,608.5C 473.5,596.167 473.5,583.833 473.5,571.5 Z"/></g>
<g><path style="opacity:0.286" fill="#6e9607" d="M 156.5,536.5 C 153.459,555.329 157.459,572.329 168.5,587.5C 169.132,599.254 168.465,610.754 166.5,622C 167.056,622.383 167.389,622.883 167.5,623.5C 162.5,623.5 157.5,623.5 152.5,623.5C 153.175,596.882 153.842,570.215 154.5,543.5C 153.123,540.586 153.79,538.253 156.5,536.5 Z"/></g>
<g><path style="opacity:0.225" fill="#000000" d="M 744.5,573.5 C 743.781,575.764 743.448,578.097 743.5,580.5C 737.252,596.32 725.585,605.486 708.5,608C 651.167,608.667 593.833,608.667 536.5,608C 523.27,606.396 512.936,600.23 505.5,589.5C 512.891,595.026 521.224,598.526 530.5,600C 587.167,600.667 643.833,600.667 700.5,600C 717.056,597.761 728.723,589.094 735.5,574C 738.482,573.502 741.482,573.335 744.5,573.5 Z"/></g>
<g><path style="opacity:0.006" fill="#000000" d="M 754.5,580.5 C 756.321,595.467 757.154,610.801 757,626.5C 758.707,628.037 760.207,629.704 761.5,631.5C 757.704,630.2 755.537,627.533 755,623.5C 754.5,609.171 754.333,594.837 754.5,580.5 Z"/></g>
<g><path style="opacity:0.007" fill="#000000" d="M 504.5,589.5 C 504.667,601.838 504.5,614.171 504,626.5C 503.617,627.056 503.117,627.389 502.5,627.5C 503.114,614.134 503.78,601.468 504.5,589.5 Z"/></g>
<g><path style="opacity:0.227" fill="#4b5a22" d="M 494.5,573.5 C 495.41,575.019 496.243,576.685 497,578.5C 497.175,593.075 497.675,607.575 498.5,622C 498.043,622.414 497.709,622.914 497.5,623.5C 380.667,624.832 264.001,624.832 147.5,623.5C 148.167,623.5 148.833,623.5 149.5,623.5C 150.5,623.5 151.5,623.5 152.5,623.5C 157.5,623.5 162.5,623.5 167.5,623.5C 270.5,623.5 373.5,623.5 476.5,623.5C 479.833,623.5 483.167,623.5 486.5,623.5C 489.722,623.892 492.722,623.392 495.5,622C 494.509,605.911 494.175,589.744 494.5,573.5 Z"/></g>
<g><path style="opacity:0.227" fill="#4a5b23" d="M 765.5,571.5 C 766.309,573.028 766.976,574.694 767.5,576.5C 766.768,577.808 765.934,579.142 765,580.5C 764.333,594.5 764.333,608.5 765,622.5C 765.383,623.056 765.883,623.389 766.5,623.5C 770.5,623.5 774.5,623.5 778.5,623.5C 799.167,623.5 819.833,623.5 840.5,623.5C 845.361,623.937 850.028,623.437 854.5,622C 853.533,617.599 853.2,613.099 853.5,608.5C 854.167,608.5 854.833,608.5 855.5,608.5C 855.805,613.762 855.471,618.928 854.5,624C 824.167,624.667 793.833,624.667 763.5,624C 762.265,607.225 762.265,590.391 763.5,573.5C 757.167,573.5 750.833,573.5 744.5,573.5C 744.5,573.167 744.5,572.833 744.5,572.5C 751.687,572.825 758.687,572.491 765.5,571.5 Z"/></g>
<g><path style="opacity:0.145" fill="#383838" d="M 861.5,468.5 C 862.665,519.998 862.832,571.665 862,623.5C 861.392,625.154 860.892,626.821 860.5,628.5C 860.047,629.458 859.381,630.292 858.5,631C 826.168,631.5 793.835,631.667 761.5,631.5C 760.207,629.704 758.707,628.037 757,626.5C 757.154,610.801 756.321,595.467 754.5,580.5C 750.833,580.5 747.167,580.5 743.5,580.5C 743.448,578.097 743.781,575.764 744.5,573.5C 750.833,573.5 757.167,573.5 763.5,573.5C 762.265,590.391 762.265,607.225 763.5,624C 793.833,624.667 824.167,624.667 854.5,624C 855.471,618.928 855.805,613.762 855.5,608.5C 857.5,608.5 859.5,608.5 861.5,608.5C 861.5,595.5 861.5,582.5 861.5,569.5C 861.5,535.833 861.5,502.167 861.5,468.5 Z"/></g>
<g><path style="opacity:0.272" fill="#6a900a" d="M 836.5,608.5 C 838.5,608.5 840.5,608.5 842.5,608.5C 845.5,608.5 848.5,608.5 851.5,608.5C 852.167,608.5 852.833,608.5 853.5,608.5C 853.2,613.099 853.533,617.599 854.5,622C 850.028,623.437 845.361,623.937 840.5,623.5C 839.713,621.896 838.38,621.229 836.5,621.5C 836.5,617.167 836.5,612.833 836.5,608.5 Z"/></g>
<g><path style="opacity:0.367" fill="#273504" d="M 842.5,600.5 C 845.5,600.5 848.5,600.5 851.5,600.5C 851.5,603.167 851.5,605.833 851.5,608.5C 848.5,608.5 845.5,608.5 842.5,608.5C 842.5,605.833 842.5,603.167 842.5,600.5 Z"/></g>
<g><path style="opacity:0.389" fill="#78a800" d="M 781.5,595.5 C 787.797,601.15 795.13,604.983 803.5,607C 814.445,608.379 825.445,608.879 836.5,608.5C 836.5,612.833 836.5,617.167 836.5,621.5C 838.38,621.229 839.713,621.896 840.5,623.5C 819.833,623.5 799.167,623.5 778.5,623.5C 780.062,614.176 781.062,604.842 781.5,595.5 Z"/></g>
<g><path style="opacity:0.529" fill="#425d01" d="M 779.5,591.5 C 786.246,595.701 793.58,598.534 801.5,600C 815.163,600.5 828.829,600.667 842.5,600.5C 842.5,603.167 842.5,605.833 842.5,608.5C 840.5,608.5 838.5,608.5 836.5,608.5C 825.445,608.879 814.445,608.379 803.5,607C 795.13,604.983 787.797,601.15 781.5,595.5C 780.4,594.395 779.733,593.062 779.5,591.5 Z"/></g>
<g><path style="opacity:0.216" fill="#6b920a" d="M 769.5,580.5 C 772.123,584.791 775.456,588.457 779.5,591.5C 779.733,593.062 780.4,594.395 781.5,595.5C 781.062,604.842 780.062,614.176 778.5,623.5C 774.5,623.5 770.5,623.5 766.5,623.5C 766.796,608.841 767.796,594.508 769.5,580.5 Z"/></g>
<g><path style="opacity:0.106" fill="#5d7614" d="M 767.5,576.5 C 768.167,577.833 768.833,579.167 769.5,580.5C 767.796,594.508 766.796,608.841 766.5,623.5C 765.883,623.389 765.383,623.056 765,622.5C 764.333,608.5 764.333,594.5 765,580.5C 765.934,579.142 766.768,577.808 767.5,576.5 Z"/></g>
</svg>
